<?xml version="1.0" standalone="no"?>
<!DOCTYPE svg PUBLIC "-//W3C//DTD SVG 20010904//EN"
 "http://www.w3.org/TR/2001/REC-SVG-20010904/DTD/svg10.dtd">
<svg version="1.0" xmlns="http://www.w3.org/2000/svg"
 width="704.000000pt" height="704.000000pt" viewBox="0 0 704.000000 704.000000"
 preserveAspectRatio="xMidYMid meet">
<metadata>
Created by potrace 1.11, written by Peter Selinger 2001-2013
</metadata>
<g transform="translate(0.000000,704.000000) scale(0.100000,-0.100000)"
fill="#000000" stroke="none">
<path d="M5185 4800 c-393 -62 -912 -405 -1529 -1010 -184 -181 -421 -431
-541 -572 -44 -52 -111 -86 -185 -95 -43 -5 -50 -2 -150 67 -448 308 -747 484
-922 541 -56 19 -95 24 -168 24 -152 0 -285 -53 -625 -250 -274 -159 -412
-222 -760 -352 -240 -90 -297 -118 -293 -147 9 -62 352 -125 613 -113 248 12
386 45 650 158 137 59 181 73 236 77 129 9 232 -31 359 -139 47 -40 119 -94
160 -121 41 -27 76 -51 78 -53 2 -2 -24 -18 -57 -35 -76 -41 -141 -117 -213
-253 -48 -90 -59 -104 -115 -141 -46 -31 -66 -51 -77 -80 -9 -22 -15 -41 -13
-42 2 -2 122 8 267 22 300 29 439 28 637 -5 267 -44 508 -63 643 -50 167 17
427 90 658 186 l93 39 212 -58 c272 -74 377 -96 538 -110 284 -25 573 28 819
152 110 56 246 148 234 159 -5 5 -52 23 -104 40 -117 40 -254 105 -340 162
-36 23 -93 53 -126 65 -120 44 -359 61 -659 45 -126 -6 -204 -6 -211 0 -34 28
-20 217 28 369 36 115 116 273 195 383 73 102 242 273 353 356 257 194 560
243 1183 194 282 -22 638 -22 827 1 80 9 149 21 153 25 12 12 -57 68 -132 105
-86 44 -245 97 -391 131 -259 60 -311 75 -445 125 -434 161 -560 197 -725 204
-52 3 -122 1 -155 -4z"/>
</g>
</svg>
